<?xml version="1.0" encoding="UTF-8"?>
<svg width="24px" height="24px" viewBox="0 0 24 24" version="1.1" xmlns="http://www.w3.org/2000/svg" xmlns:xlink="http://www.w3.org/1999/xlink">
    <!-- Generator: Sketch 48.2 (47327) - http://www.bohemiancoding.com/sketch -->
    <title>Shape</title>
    <desc>Created with Sketch.</desc>
    <defs></defs>
    <g id="Chats-" stroke="none" stroke-width="1" fill="none" fill-rule="evenodd" transform="translate(-243.000000, -188.000000)">
        <g id="Ban,-Block,-Suspend,-Round,-No,-Not" transform="translate(243.000000, 188.000000)" fill="#FAFAFA" fill-rule="nonzero">
            <path d="M20.5,11.9922128 C20.5,10.3205711 20.046875,8.78909799 19.140625,7.39779364 L7.359375,19.1252433 C8.78645833,20.0493186 10.3333333,20.5113563 12,20.5113563 C13.15625,20.5113563 14.2578125,20.2855289 15.3046875,19.8338741 C16.3515625,19.3822193 17.2552083,18.7774173 18.015625,18.0194679 C18.7760417,17.2615185 19.3802083,16.3556132 19.828125,15.3017521 C20.2760417,14.247891 20.5,13.1447112 20.5,11.9922128 Z M4.890625,16.6489293 L16.6875,4.90590526 C15.28125,3.96106424 13.71875,3.48864374 12,3.48864374 C10.4583333,3.48864374 9.03645833,3.86761843 7.734375,4.62556781 C6.43229167,5.3835172 5.40104167,6.41661259 4.640625,7.72485399 C3.88020833,9.03309539 3.5,10.4555483 3.5,11.9922128 C3.5,13.6742375 3.96354167,15.2264763 4.890625,16.6489293 Z M24,11.9922128 C24,13.6223232 23.6822917,15.1797534 23.046875,16.6645036 C22.4114583,18.1492537 21.5598958,19.4263465 20.4921875,20.495782 C19.4244792,21.5652174 18.1484375,22.4166126 16.6640625,23.0499676 C15.1796875,23.6833225 13.625,24 12,24 C10.375,24 8.8203125,23.6833225 7.3359375,23.0499676 C5.8515625,22.4166126 4.57552083,21.5652174 3.5078125,20.495782 C2.44010417,19.4263465 1.58854167,18.1492537 0.953125,16.6645036 C0.317708333,15.1797534 0,13.6223232 0,11.9922128 C0,10.3621025 0.317708333,8.80726801 0.953125,7.32770928 C1.58854167,5.84815055 2.44010417,4.57365347 3.5078125,3.50421804 C4.57552083,2.43478261 5.8515625,1.58338741 7.3359375,0.950032446 C8.8203125,0.316677482 10.375,0 12,0 C13.625,0 15.1796875,0.316677482 16.6640625,0.950032446 C18.1484375,1.58338741 19.4244792,2.43478261 20.4921875,3.50421804 C21.5598958,4.57365347 22.4114583,5.84815055 23.046875,7.32770928 C23.6822917,8.80726801 24,10.3621025 24,11.9922128 Z" id="Shape"></path>
        </g>
    </g>
</svg>