<?xml version="1.0" encoding="UTF-8"?>
<svg width="28px" height="23px" viewBox="0 0 28 23" version="1.1" xmlns="http://www.w3.org/2000/svg" xmlns:xlink="http://www.w3.org/1999/xlink">
    <!-- Generator: Sketch 48.2 (47327) - http://www.bohemiancoding.com/sketch -->
    <title>chat 2</title>
    <desc>Created with Sketch.</desc>
    <defs></defs>
    <g id="Symbols" stroke="none" stroke-width="1" fill="none" fill-rule="evenodd">
        <g id="chat-2" fill="#C6C6C6" fill-rule="nonzero">
            <path d="M11.5,3 C5.14846154,3 0,7.02120205 0,11.9839188 C0,14.416764 1.24023077,16.6286048 3.25361538,18.2457102 C3.13684615,19.8951577 2.74584615,21.9129458 1.61353846,23 C3.86753846,23 6.17107692,21.5661666 7.62715385,20.4449735 C8.83730769,20.7827688 10.1394615,20.9678376 11.5,20.9678376 C17.8515385,20.9678376 23,16.9484323 23,11.9839188 C23,7.02120205 17.8515385,3 11.5,3 Z" id="Shape"></path>
            <path d="M26.3248301,13.45252 C27.2924309,12.1390711 27.8461037,10.6118049 27.8461037,8.98391879 C27.8461037,4.02120205 22.6985383,0 16.3481054,0 C13.5532073,0 10.9918071,0.779804151 9,2.07348846 C9.93752909,1.89381008 10.9175123,1.79678376 11.9257983,1.79678376 C18.764454,1.79678376 24.3082581,6.22226215 24.3082581,11.6790944 C24.3082581,13.8298446 23.4503305,15.8224778 21.9874313,17.4413799 C23.439717,18.562573 25.7463923,20 28,20 C26.3973559,18.454766 26.2823759,15.0300961 26.3248301,13.45252 Z" id="Shape"></path>
        </g>
    </g>
</svg>