<?xml version="1.0" encoding="UTF-8"?>
<svg width="25px" height="23px" viewBox="0 0 25 23" version="1.1" xmlns="http://www.w3.org/2000/svg" xmlns:xlink="http://www.w3.org/1999/xlink">
    <!-- Generator: Sketch 48.2 (47327) - http://www.bohemiancoding.com/sketch -->
    <title>Home</title>
    <desc>Created with Sketch.</desc>
    <defs>
        <linearGradient x1="105.08361%" y1="105.782829%" x2="-3.15159218%" y2="-3.05881962%" id="linearGradient-1">
            <stop stop-color="#7873F5" offset="0%"></stop>
            <stop stop-color="#EC77AB" offset="100%"></stop>
        </linearGradient>
    </defs>
    <g id="discover" stroke="none" stroke-width="1" fill="none" fill-rule="evenodd" transform="translate(-50.000000, -627.000000)">
        <g id="home" transform="translate(50.000000, 627.000000)" fill="url(#linearGradient-1)" fill-rule="nonzero">
            <g id="Home">
                <path d="M24.6867841,11.2217782 C25.1399684,10.7481371 25.0962065,10.0221869 24.5890736,9.60074229 L13.4162595,0.310375504 C12.9091266,-0.111069063 12.0960679,-0.102240566 11.5996107,0.330278344 L0.388820654,10.0960674 C-0.107636583,10.5285863 -0.132003082,11.2536073 0.334872083,11.7147801 L0.615942505,11.9929552 C1.08224722,12.454128 1.83597883,12.5091125 2.29837186,12.1153925 L3.13620457,11.4023752 L3.13620457,21.8410662 C3.13620457,22.4815194 3.68229123,23 4.35575194,23 L8.72574912,23 C9.39920983,23 9.94529649,22.4815194 9.94529649,21.8410662 L9.94529649,14.5381954 L15.5192758,14.5381954 L15.5192758,21.8410662 C15.5095781,22.4810548 15.9914481,22.9995353 16.6649088,22.9995353 L21.2960105,22.9995353 C21.9694712,22.9995353 22.5155579,22.4810548 22.5155579,21.8406015 L22.5155579,11.549362 C22.5155579,11.549362 22.7469989,11.74204 23.0324699,11.9804869 C23.317452,12.2184691 23.9160204,12.0276496 24.3692047,11.5535439 L24.6867841,11.2217782 Z" id="Shape"></path>
            </g>
        </g>
    </g>
</svg>