<?xml version="1.0" encoding="UTF-8"?>
<svg width="16px" height="23px" viewBox="0 0 16 23" version="1.1" xmlns="http://www.w3.org/2000/svg" xmlns:xlink="http://www.w3.org/1999/xlink">
    <!-- Generator: Sketch 48.2 (47327) - http://www.bohemiancoding.com/sketch -->
    <title>location</title>
    <desc>Created with Sketch.</desc>
    <defs></defs>
    <g id="discover" stroke="none" stroke-width="1" fill="none" fill-rule="evenodd" transform="translate(-319.000000, -238.000000)">
        <g id="Group-3" transform="translate(312.000000, 238.000000)" fill="#5C6B7A" fill-rule="nonzero">
            <g id="location" transform="translate(7.000000, 0.000000)">
                <path d="M8,4 C6.34614286,4 5,5.34614286 5,7 C5,8.65385714 6.34614286,10 8,10 C9.65385714,10 11,8.65385714 11,7 C11,5.34614286 9.65385714,4 8,4 Z M8,9.14285714 C6.81842857,9.14285714 5.85714286,8.18157143 5.85714286,7 C5.85714286,5.81842857 6.81842857,4.85714286 8,4.85714286 C9.18157143,4.85714286 10.1428571,5.81842857 10.1428571,7 C10.1428571,8.18157143 9.18157143,9.14285714 8,9.14285714 Z" id="Shape"></path>
                <path d="M13.6580262,2.35935132 C12.1469319,0.837975053 10.1377021,0 8.00080951,0 C5.86349971,0 3.85468716,0.837975053 2.34359286,2.35935132 C-0.452891159,5.17444345 -0.800417816,10.4711178 1.5909661,13.6802053 L8.00080951,23 L14.4010574,13.6932264 C16.8020368,10.4711178 16.4545102,5.17444345 13.6580262,2.35935132 Z M13.7243608,13.2022025 L8.00080951,21.5239878 L2.26807986,13.1891813 C0.0990629444,10.2774805 0.409876101,5.49409208 2.93392926,2.95328451 C4.28732238,1.59068247 6.0867011,0.840075242 8.00080951,0.840075242 C9.91491792,0.840075242 11.7142966,1.59068247 13.068107,2.95328451 C15.5921601,5.49409208 15.9029733,10.2774805 13.7243608,13.2022025 Z" id="Shape"></path>
            </g>
        </g>
    </g>
</svg>