<?xml version="1.0" encoding="UTF-8"?>
<svg width="20px" height="20px" viewBox="0 0 20 20" version="1.1" xmlns="http://www.w3.org/2000/svg" xmlns:xlink="http://www.w3.org/1999/xlink">
    <!-- Generator: Sketch 48.2 (47327) - http://www.bohemiancoding.com/sketch -->
    <title>Combined Shape</title>
    <desc>Created with Sketch.</desc>
    <defs></defs>
    <g id="Account" stroke="none" stroke-width="1" fill="none" fill-rule="evenodd" transform="translate(-130.000000, -329.000000)">
        <g id="settings" transform="translate(116.000000, 319.000000)" fill="#FAFAFA" fill-rule="nonzero">
            <g id="Settings" transform="translate(14.000000, 10.000000)">
                <g id="Expanded">
                    <path d="M10.8333333,20 L9.16666667,20 C8.4775,20 7.91666667,19.4391667 7.91666667,18.75 L7.91666667,17.1983333 C7.38327278,17.0441575 6.86881814,16.8307448 6.38291667,16.5620833 L5.28541667,17.66 C4.81291667,18.1325 3.99,18.1316667 3.5175,17.66 L2.33875,16.4816667 C2.1025,16.2458333 1.9725,15.9316667 1.9725,15.5979167 C1.9725,15.2641667 2.1025,14.95 2.33875,14.7141667 L3.43666667,13.6158333 C3.16798891,13.1303339 2.95484026,12.6161215 2.80125,12.0829167 L1.25,12.0829167 C0.560833333,12.0829167 0,11.5220833 0,10.8329167 L0,9.16625 C0,8.83208333 0.13,8.51833333 0.365833333,8.2825 C0.599883206,8.04733627 0.918215857,7.91547275 1.25,7.91625 L2.80166667,7.91625 C2.95583333,7.38375 3.16833333,6.87 3.4375,6.38333333 L2.34,5.28541667 C1.85248205,4.79710166 1.85248205,4.00623167 2.34,3.51791667 L3.51833333,2.33916667 C3.99041667,1.8675 4.81375,1.86666667 5.28625,2.33916667 L6.38416667,3.43708333 C6.86969427,3.168767 7.38372716,2.95563482 7.91666667,2.80166667 L7.91666667,1.25 C7.91666667,0.560833333 8.4775,0 9.16666667,0 L10.8333333,0 C11.5225,0 12.0833333,0.560833333 12.0833333,1.25 L12.0833333,2.80166667 C12.6166667,2.95583333 13.13,3.16875 13.6158333,3.43708333 L14.71375,2.33916667 C15.18625,1.8675 16.0091667,1.86666667 16.4816667,2.33916667 L17.6604167,3.5175 C17.8966667,3.75333333 18.0266667,4.0675 18.0266667,4.40125 C18.0266667,4.735 17.8966667,5.04916667 17.6604167,5.285 L16.5629167,6.38291667 C16.8316874,6.86856833 17.0449729,7.38291346 17.19875,7.91625 L18.75,7.91625 C19.4391667,7.91625 20,8.47708333 20,9.16625 L20,10.8329167 C20,11.1670833 19.87,11.4808333 19.6341667,11.7166667 C19.3983333,11.9525 19.0841667,12.0829167 18.75,12.0829167 L17.1983333,12.0829167 C17.0442677,12.6161521 16.8309953,13.1304656 16.5625,13.61625 L17.66,14.7141667 C18.1475179,15.2024817 18.1475179,15.9933517 17.66,16.4816667 L16.4816667,17.6604167 C16.0091667,18.1325 15.18625,18.1325 14.71375,17.6604167 L13.6166667,16.5625 C13.1310068,16.830951 12.6168364,17.044222 12.08375,17.1983333 L12.08375,18.75 C12.0826025,19.4400427 11.5233763,19.9990824 10.8333333,20 Z M10,14.1666667 C12.2979167,14.1666667 14.1666667,12.2975 14.1666667,10 C14.1666667,7.7025 12.2975,5.83333333 10,5.83333333 C7.7025,5.83333333 5.83333333,7.7025 5.83333333,10 C5.83333333,12.2975 7.7025,14.1666667 10,14.1666667 Z" id="Combined-Shape"></path>
                </g>
            </g>
        </g>
    </g>
</svg>