<?xml version="1.0" encoding="UTF-8"?>
<svg width="29px" height="29px" viewBox="0 0 29 29" version="1.1" xmlns="http://www.w3.org/2000/svg" xmlns:xlink="http://www.w3.org/1999/xlink">
    <!-- Generator: Sketch 48.2 (47327) - http://www.bohemiancoding.com/sketch -->
    <title>Shape</title>
    <desc>Created with Sketch.</desc>
    <defs></defs>
    <g id="profile" stroke="none" stroke-width="1" fill="none" fill-rule="evenodd" transform="translate(-173.000000, -920.000000)">
        <g id="Like" transform="translate(160.000000, 906.000000)" fill="#FAFAFA" fill-rule="nonzero">
            <g id="Share" transform="translate(13.000000, 14.000000)">
                <g id="Layer_1">
                    <path d="M10.3821333,14.5 C10.3821333,14.5958222 10.3603556,14.6860444 10.3547556,14.7812444 L20.3871556,19.7960444 C21.2461333,19.0686667 22.3449778,18.6147556 23.5589333,18.6147556 C26.2883111,18.6156889 28.5,20.8273778 28.5,23.5561333 C28.5,26.2883111 26.2883111,28.5 23.5589333,28.5 C20.8273778,28.5 18.6178667,26.2883111 18.6178667,23.5561333 C18.6178667,23.4578222 18.6396444,23.3697778 18.6452444,23.2745778 L8.61284444,18.2597778 C7.75137778,18.9843556 6.65502222,19.4382667 5.44106667,19.4382667 C2.712,19.4382667 0.5,17.2287556 0.5,14.5 C0.5,11.7684444 2.712,9.55613333 5.44106667,9.55613333 C6.65502222,9.55613333 7.75168889,10.0128444 8.61284444,10.7374222 L18.6452444,5.72262222 C18.6396444,5.6268 18.6178667,5.53657778 18.6178667,5.43826667 C18.6178667,2.712 20.8273778,0.5 23.5589333,0.5 C26.2883111,0.5 28.5,2.712 28.5,5.43826667 C28.5,8.16982222 26.2883111,10.3821333 23.5589333,10.3821333 C22.3421778,10.3821333 21.2452,9.92542222 20.3871556,9.19804444 L10.3547556,14.2156444 C10.3600444,14.3114667 10.3821333,14.4016889 10.3821333,14.5" id="Shape"></path>
                </g>
            </g>
        </g>
    </g>
</svg>